<?xml version="1.0" encoding="utf-8"?>
<svg viewBox="0 0 500 500" xmlns="http://www.w3.org/2000/svg">
  <path d="M 419.553 79.429 C 434.343 92.046 443.475 109.494 443.475 128.74 C 443.475 155.922 435.838 181.179 422.806 202.601 L 427.615 202.601 L 427.615 241.745 L 292.843 241.745 L 292.843 340.313 L 412.499 340.313 L 412.499 378.978 L 292.843 378.978 L 292.843 491.19 C 407.684 470.929 494.924 370.653 494.924 250 C 494.924 173.824 460.147 105.769 405.605 60.848 C 404.967 61.58 404.299 62.295 403.601 62.99 C 393.744 73.487 387.655 88.014 387.655 104.083 C 387.655 115.423 396.593 124.627 407.588 124.627 C 418.604 124.627 427.526 115.425 427.526 104.083 C 427.526 94.452 424.481 85.738 419.55 79.428 L 419.553 79.429 Z M 292.843 491.19 C 279.605 493.525 265.999 494.798 252.119 494.916 C 265.999 494.798 279.605 493.525 292.843 491.19 Z M 252.119 202.706 L 252.083 202.706 C 252.095 202.696 252.107 202.687 252.119 202.677 L 252.119 202.601 L 252.214 202.601 C 271.862 186.852 283.985 165.108 283.985 141.067 C 283.985 118.581 295.74 98.246 314.788 83.541 C 309.856 94.04 306.81 108.571 306.81 124.631 C 306.81 133.705 313.963 141.07 322.763 141.07 C 331.57 141.07 338.714 133.705 338.714 124.631 C 338.714 101.372 347.844 80.328 362.638 65.124 L 382.908 44.239 C 374.655 38.897 366.059 34.037 357.161 29.701 C 356.454 30.962 355.828 32.27 355.291 33.616 L 350.291 46.084 C 345.37 58.3 331.741 64.142 319.865 59.082 C 327.549 55.624 333.271 49.262 336.281 41.729 L 341.288 29.281 C 342.078 27.309 343.093 25.504 344.288 23.883 C 315.267 11.767 283.415 5.076 250 5.076 C 114.733 5.076 5.076 114.733 5.076 250 C 5.076 385.268 114.733 494.924 250 494.924 C 250.707 494.924 251.414 494.922 252.119 494.916 L 252.119 202.706 Z M 391.641 35.241 C 399.619 27.019 403.613 16.24 403.603 5.464 C 418.852 20.66 419.52 44.865 405.605 60.848 C 398.374 54.894 390.797 49.346 382.908 44.239 L 391.641 35.241 Z M 363.729 136.96 C 352.268 165.637 330.15 189.734 300.183 202.601 L 374.914 202.601 C 384.653 181.095 380.972 154.714 363.729 136.96 Z M 280.161 66.929 C 287.163 59.737 291.56 49.89 291.742 39.085 C 303.11 50.804 303.11 69.793 291.742 81.511 L 280.167 93.437 C 273.167 100.628 268.765 110.474 268.588 121.267 C 257.216 109.569 257.216 90.565 268.588 78.852 L 280.161 66.929 Z M 371.705 16.266 C 365.402 19.103 360.409 23.91 357.161 29.701 C 352.937 27.643 348.644 25.702 344.288 23.883 C 350.538 15.413 361.732 12.002 371.705 16.266 Z M 33.827 218.342 C 33.827 197.261 37.021 178.974 43.415 163.468 C 49.791 147.953 58.521 135.231 69.603 125.291 C 80.695 115.371 93.827 108.009 109.01 103.205 C 124.203 98.391 140.606 95.989 158.23 95.989 L 239.271 95.989 L 239.271 141.129 L 163.239 141.129 C 131.633 141.129 108.707 148.256 94.442 162.511 C 80.158 176.787 73.02 195.396 73.02 218.342 C 73.02 229.825 74.768 240.301 78.264 249.762 C 81.749 259.215 87.138 267.347 94.442 274.173 C 101.727 281.008 111.06 286.29 122.445 290 C 133.85 293.72 147.441 295.585 163.239 295.585 L 239.271 295.585 L 239.271 340.714 L 158.23 340.714 C 140.606 340.714 124.203 338.312 109.01 333.509 C 93.827 328.704 80.695 321.254 69.603 311.168 C 58.521 301.082 49.791 288.369 43.415 273.03 C 37.021 257.662 33.827 239.432 33.827 218.342 Z" style="fill: rgb(51, 51, 51);"/>
</svg>